<mxfile host="app.diagrams.net" agent="Mozilla/5.0 (Windows NT 10.0; Win64; x64) AppleWebKit/537.36 (KHTML, like Gecko) Chrome/131.0.0.0 Safari/537.36" version="26.0.8">
  <diagram name="Page-1" id="kxp_ylCqVkYz4CwA_mdZ">
    <mxGraphModel dx="1750" dy="928" grid="1" gridSize="10" guides="1" tooltips="1" connect="1" arrows="1" fold="1" page="1" pageScale="1" pageWidth="850" pageHeight="1100" math="0" shadow="0">
      <root>
        <mxCell id="0" />
        <mxCell id="1" parent="0" />
        <mxCell id="n1hefSuWGYwhZ95y1D1R-5" value="" style="edgeStyle=orthogonalEdgeStyle;rounded=0;orthogonalLoop=1;jettySize=auto;html=1;" edge="1" parent="1" source="n1hefSuWGYwhZ95y1D1R-1" target="n1hefSuWGYwhZ95y1D1R-4">
          <mxGeometry relative="1" as="geometry" />
        </mxCell>
        <mxCell id="n1hefSuWGYwhZ95y1D1R-1" value="User input the problem" style="rounded=1;whiteSpace=wrap;html=1;fontSize=16;fillColor=#1ba1e2;fontColor=#ffffff;strokeColor=#006EAF;" vertex="1" parent="1">
          <mxGeometry x="40" y="170" width="180" height="60" as="geometry" />
        </mxCell>
        <mxCell id="n1hefSuWGYwhZ95y1D1R-7" value="" style="edgeStyle=orthogonalEdgeStyle;rounded=0;orthogonalLoop=1;jettySize=auto;html=1;" edge="1" parent="1" source="n1hefSuWGYwhZ95y1D1R-4" target="n1hefSuWGYwhZ95y1D1R-6">
          <mxGeometry relative="1" as="geometry" />
        </mxCell>
        <mxCell id="n1hefSuWGYwhZ95y1D1R-4" value="&lt;font style=&quot;font-size: 16px;&quot;&gt;Knowledge base&lt;/font&gt;" style="whiteSpace=wrap;html=1;rounded=1;fillColor=#1ba1e2;fontColor=#ffffff;strokeColor=#006EAF;" vertex="1" parent="1">
          <mxGeometry x="300" y="170" width="135" height="60" as="geometry" />
        </mxCell>
        <mxCell id="n1hefSuWGYwhZ95y1D1R-9" value="" style="edgeStyle=orthogonalEdgeStyle;rounded=0;orthogonalLoop=1;jettySize=auto;html=1;entryX=0;entryY=0.5;entryDx=0;entryDy=0;" edge="1" parent="1" source="n1hefSuWGYwhZ95y1D1R-6" target="n1hefSuWGYwhZ95y1D1R-8">
          <mxGeometry relative="1" as="geometry">
            <Array as="points">
              <mxPoint x="575" y="100" />
            </Array>
          </mxGeometry>
        </mxCell>
        <mxCell id="n1hefSuWGYwhZ95y1D1R-19" value="YES" style="edgeLabel;html=1;align=center;verticalAlign=middle;resizable=0;points=[];fontSize=16;fontColor=#2C0EFF;" vertex="1" connectable="0" parent="n1hefSuWGYwhZ95y1D1R-9">
          <mxGeometry x="0.3162" y="1" relative="1" as="geometry">
            <mxPoint as="offset" />
          </mxGeometry>
        </mxCell>
        <mxCell id="n1hefSuWGYwhZ95y1D1R-15" style="edgeStyle=orthogonalEdgeStyle;rounded=0;orthogonalLoop=1;jettySize=auto;html=1;entryX=0;entryY=0.5;entryDx=0;entryDy=0;strokeWidth=1;fontSize=16;" edge="1" parent="1" source="n1hefSuWGYwhZ95y1D1R-6" target="n1hefSuWGYwhZ95y1D1R-13">
          <mxGeometry relative="1" as="geometry">
            <Array as="points">
              <mxPoint x="575" y="255" />
            </Array>
          </mxGeometry>
        </mxCell>
        <mxCell id="n1hefSuWGYwhZ95y1D1R-18" value="NO" style="edgeLabel;html=1;align=center;verticalAlign=middle;resizable=0;points=[];fontSize=18;fontColor=#2C0EFF;" vertex="1" connectable="0" parent="n1hefSuWGYwhZ95y1D1R-15">
          <mxGeometry x="0.2753" y="-3" relative="1" as="geometry">
            <mxPoint x="-1" as="offset" />
          </mxGeometry>
        </mxCell>
        <mxCell id="n1hefSuWGYwhZ95y1D1R-6" value="&lt;font style=&quot;font-size: 16px;&quot;&gt;Ai analysis&lt;/font&gt;" style="whiteSpace=wrap;html=1;rounded=1;fillColor=#1ba1e2;fontColor=#ffffff;strokeColor=#006EAF;" vertex="1" parent="1">
          <mxGeometry x="515" y="170" width="120" height="60" as="geometry" />
        </mxCell>
        <mxCell id="n1hefSuWGYwhZ95y1D1R-12" value="" style="edgeStyle=orthogonalEdgeStyle;rounded=0;orthogonalLoop=1;jettySize=auto;html=1;" edge="1" parent="1" source="n1hefSuWGYwhZ95y1D1R-8" target="n1hefSuWGYwhZ95y1D1R-11">
          <mxGeometry relative="1" as="geometry" />
        </mxCell>
        <mxCell id="n1hefSuWGYwhZ95y1D1R-8" value="&lt;font style=&quot;font-size: 16px;&quot;&gt;Design recommendations&lt;/font&gt;" style="whiteSpace=wrap;html=1;rounded=1;fillColor=#1ba1e2;fontColor=#ffffff;strokeColor=#006EAF;" vertex="1" parent="1">
          <mxGeometry x="670" y="70" width="200" height="60" as="geometry" />
        </mxCell>
        <mxCell id="n1hefSuWGYwhZ95y1D1R-14" value="" style="edgeStyle=orthogonalEdgeStyle;rounded=0;orthogonalLoop=1;jettySize=auto;html=1;" edge="1" parent="1" source="n1hefSuWGYwhZ95y1D1R-11" target="n1hefSuWGYwhZ95y1D1R-13">
          <mxGeometry relative="1" as="geometry" />
        </mxCell>
        <mxCell id="n1hefSuWGYwhZ95y1D1R-11" value="&lt;font style=&quot;font-size: 17px;&quot;&gt;User feedback&lt;/font&gt;" style="whiteSpace=wrap;html=1;rounded=1;fillColor=#1ba1e2;fontColor=#ffffff;strokeColor=#006EAF;" vertex="1" parent="1">
          <mxGeometry x="940" y="70" width="120" height="60" as="geometry" />
        </mxCell>
        <mxCell id="n1hefSuWGYwhZ95y1D1R-17" value="" style="edgeStyle=orthogonalEdgeStyle;rounded=0;orthogonalLoop=1;jettySize=auto;html=1;" edge="1" parent="1" source="n1hefSuWGYwhZ95y1D1R-13" target="n1hefSuWGYwhZ95y1D1R-16">
          <mxGeometry relative="1" as="geometry" />
        </mxCell>
        <mxCell id="n1hefSuWGYwhZ95y1D1R-20" value="&lt;font style=&quot;color: rgb(44, 14, 255);&quot;&gt;Yes&lt;/font&gt;" style="edgeLabel;html=1;align=center;verticalAlign=middle;resizable=0;points=[];fontSize=18;" vertex="1" connectable="0" parent="n1hefSuWGYwhZ95y1D1R-17">
          <mxGeometry x="0.04" y="1" relative="1" as="geometry">
            <mxPoint as="offset" />
          </mxGeometry>
        </mxCell>
        <mxCell id="n1hefSuWGYwhZ95y1D1R-13" value="&lt;font style=&quot;font-size: 17px;&quot;&gt;Acceptable?&lt;/font&gt;" style="rhombus;whiteSpace=wrap;html=1;rounded=1;fillColor=#1ba1e2;fontColor=#ffffff;strokeColor=#006EAF;" vertex="1" parent="1">
          <mxGeometry x="935" y="190" width="130" height="130" as="geometry" />
        </mxCell>
        <mxCell id="n1hefSuWGYwhZ95y1D1R-16" value="&lt;font style=&quot;font-size: 18px;&quot;&gt;Final design&lt;/font&gt;" style="whiteSpace=wrap;html=1;rounded=1;fillColor=#1ba1e2;fontColor=#ffffff;strokeColor=#006EAF;" vertex="1" parent="1">
          <mxGeometry x="1190" y="225" width="120" height="60" as="geometry" />
        </mxCell>
      </root>
    </mxGraphModel>
  </diagram>
</mxfile>
